{
  "accessors": [
    {
      "bufferView": 2,
      "componentType": 5126,
      "count": 2682,
      "max": [
        0.29891425371170044,
        0.8247776627540588,
        1.8403817415237427
      ],
      "min": [
        -0.29891425371170044,
        -0.8247776627540588,
        -0.4609459936618805
      ],
      "type": "VEC3"
    },
    {
      "bufferView": 2,
      "byteOffset": 32184,
      "componentType": 5126,
      "count": 2682,
      "max": [
        1.0,
        1.0,
        1.0
      ],
      "min": [
        -1.0,
        -1.0,
        -1.0
      ],
      "type": "VEC3"
    },
    {
      "bufferView": 3,
      "componentType": 5126,
      "count": 2682,
      "max": [
        1.0,
        1.0,
        0.9689865112304688,
        1.0
      ],
      "min": [
        -1.0,
        -1.0,
        -0.9696310758590698,
        -1.0
      ],
      "type": "VEC4"
    },
    {
      "bufferView": 1,
      "componentType": 5126,
      "count": 2682,
      "max": [
        0.9996823072433472,
        0.9901961088180542
      ],
      "min": [
        0.0036279314663261175,
        0.0024780684616416693
      ],
      "type": "VEC2"
    },
    {
      "bufferView": 1,
      "byteOffset": 21456,
      "componentType": 5126,
      "count": 2682,
      "max": [
        0.9996823072433472,
        0.9901961088180542
      ],
      "min": [
        0.0036279314663261175,
        0.0024780684616416693
      ],
      "type": "VEC2"
    },
    {
      "bufferView": 0,
      "componentType": 5125,
      "count": 7242,
      "type": "SCALAR"
    },
    {
      "bufferView": 2,
      "byteOffset": 64368,
      "componentType": 5126,
      "count": 1700,
      "max": [
        0.29891425371170044,
        0.8247776627540588,
        0.9318341612815857
      ],
      "min": [
        -0.29891425371170044,
        -0.8247776627540588,
        -0.4609459936618805
      ],
      "type": "VEC3"
    },
    {
      "bufferView": 2,
      "byteOffset": 84768,
      "componentType": 5126,
      "count": 1700,
      "max": [
        1.0,
        1.0,
        1.0
      ],
      "min": [
        -1.0,
        -1.0,
        -1.0
      ],
      "type": "VEC3"
    },
    {
      "bufferView": 3,
      "byteOffset": 42912,
      "componentType": 5126,
      "count": 1700,
      "max": [
        1.0,
        1.0,
        0.9689865112304688,
        1.0
      ],
      "min": [
        -1.0,
        -1.0,
        -0.9696310758590698,
        -1.0
      ],
      "type": "VEC4"
    },
    {
      "bufferView": 1,
      "byteOffset": 42912,
      "componentType": 5126,
      "count": 1700,
      "max": [
        0.9996823072433472,
        0.9901961088180542
      ],
      "min": [
        0.0036279314663261175,
        0.0024780684616416693
      ],
      "type": "VEC2"
    },
    {
      "bufferView": 1,
      "byteOffset": 56512,
      "componentType": 5126,
      "count": 1700,
      "max": [
        0.9996823072433472,
        0.9901961088180542
      ],
      "min": [
        0.0036279314663261175,
        0.0024780684616416693
      ],
      "type": "VEC2"
    },
    {
      "bufferView": 0,
      "byteOffset": 28968,
      "componentType": 5125,
      "count": 4626,
      "type": "SCALAR"
    },
    {
      "bufferView": 2,
      "byteOffset": 105168,
      "componentType": 5126,
      "count": 712,
      "max": [
        0.29891425371170044,
        0.8247776627540588,
        0.02328651398420334
      ],
      "min": [
        -0.29891425371170044,
        -0.8247776627540588,
        -0.4609459936618805
      ],
      "type": "VEC3"
    },
    {
      "bufferView": 2,
      "byteOffset": 113712,
      "componentType": 5126,
      "count": 712,
      "max": [
        1.0,
        1.0,
        1.0
      ],
      "min": [
        -1.0,
        -1.0,
        -1.0
      ],
      "type": "VEC3"
    },
    {
      "bufferView": 3,
      "byteOffset": 70112,
      "componentType": 5126,
      "count": 712,
      "max": [
        1.0,
        1.0,
        0.9689859747886658,
        1.0
      ],
      "min": [
        -1.0,
        -1.0,
        -0.9696301817893982,
        -1.0
      ],
      "type": "VEC4"
    },
    {
      "bufferView": 1,
      "byteOffset": 70112,
      "componentType": 5126,
      "count": 712,
      "max": [
        0.9996823072433472,
        0.9901961088180542
      ],
      "min": [
        0.0036279314663261175,
        0.0024780684616416693
      ],
      "type": "VEC2"
    },
    {
      "bufferView": 1,
      "byteOffset": 75808,
      "componentType": 5126,
      "count": 712,
      "max": [
        0.9996823072433472,
        0.9901961088180542
      ],
      "min": [
        0.0036279314663261175,
        0.0024780684616416693
      ],
      "type": "VEC2"
    },
    {
      "bufferView": 0,
      "byteOffset": 47472,
      "componentType": 5125,
      "count": 2010,
      "type": "SCALAR"
    }
  ],
  "asset": {
    "extras": {
      "author": "AidanWatts3D (https://sketchfab.com/AidanWatts_3D)",
      "license": "SKETCHFAB Standard (https://sketchfab.com/licenses)",
      "source": "https://sketchfab.com/3d-models/metal-shelfbench-assets-d7ee9b3cf26b415d96a81137e9c173d6",
      "title": "Metal Shelf/Bench Assets"
    },
    "generator": "Sketchfab-12.67.0",
    "version": "2.0"
  },
  "bufferViews": [
    {
      "buffer": 0,
      "byteLength": 55512,
      "name": "floatBufferViews",
      "target": 34963
    },
    {
      "buffer": 0,
      "byteLength": 81504,
      "byteOffset": 55512,
      "byteStride": 8,
      "name": "floatBufferViews",
      "target": 34962
    },
    {
      "buffer": 0,
      "byteLength": 122256,
      "byteOffset": 137016,
      "byteStride": 12,
      "name": "floatBufferViews",
      "target": 34962
    },
    {
      "buffer": 0,
      "byteLength": 81504,
      "byteOffset": 259272,
      "byteStride": 16,
      "name": "floatBufferViews",
      "target": 34962
    }
  ],
  "buffers": [
    {
      "byteLength": 340776,
      "uri": "scene.bin"
    }
  ],
  "images": [
    {
      "uri": "textures/Material_baseColor.png"
    },
    {
      "uri": "textures/Material_metallicRoughness.png"
    },
    {
      "uri": "textures/Material_normal.png"
    }
  ],
  "materials": [
    {
      "doubleSided": true,
      "name": "Material",
      "normalTexture": {
        "index": 2
      },
      "pbrMetallicRoughness": {
        "baseColorTexture": {
          "index": 0
        },
        "metallicRoughnessTexture": {
          "index": 1
        }
      }
    }
  ],
  "meshes": [
    {
      "name": "Shelve Tall Asset_Material_0",
      "primitives": [
        {
          "attributes": {
            "NORMAL": 1,
            "POSITION": 0,
            "TANGENT": 2,
            "TEXCOORD_0": 3,
            "TEXCOORD_1": 4
          },
          "indices": 5,
          "material": 0,
          "mode": 4
        }
      ]
    },
    {
      "name": "Shelve Short Asset_Material_0",
      "primitives": [
        {
          "attributes": {
            "NORMAL": 7,
            "POSITION": 6,
            "TANGENT": 8,
            "TEXCOORD_0": 9,
            "TEXCOORD_1": 10
          },
          "indices": 11,
          "material": 0,
          "mode": 4
        }
      ]
    },
    {
      "name": "Bench Asset_Material_0",
      "primitives": [
        {
          "attributes": {
            "NORMAL": 13,
            "POSITION": 12,
            "TANGENT": 14,
            "TEXCOORD_0": 15,
            "TEXCOORD_1": 16
          },
          "indices": 17,
          "material": 0,
          "mode": 4
        }
      ]
    }
  ],
  "nodes": [
    {
      "children": [
        1
      ],
      "matrix": [
        1.0,
        0.0,
        0.0,
        0.0,
        0.0,
        2.220446049250313e-16,
        -1.0,
        0.0,
        0.0,
        1.0,
        2.220446049250313e-16,
        0.0,
        0.0,
        0.0,
        0.0,
        1.0
      ],
      "name": "Sketchfab_model"
    },
    {
      "children": [
        2
      ],
      "matrix": [
        1.0,
        0.0,
        0.0,
        0.0,
        0.0,
        0.0,
        1.0,
        0.0,
        0.0,
        -1.0,
        0.0,
        0.0,
        0.0,
        0.0,
        0.0,
        1.0
      ],
      "name": "e7d35ebd07914db399e067a287df94bf.fbx"
    },
    {
      "children": [
        3,
        5,
        7
      ],
      "name": "RootNode"
    },
    {
      "children": [
        4
      ],
      "matrix": [
        100.0,
        0.0,
        0.0,
        0.0,
        0.0,
        -1.629206793918314e-05,
        -99.99999999999868,
        0.0,
        0.0,
        99.99999999999868,
        -1.629206793918314e-05,
        0.0,
        0.0,
        0.0,
        0.0,
        1.0
      ],
      "name": "Shelve Tall Asset"
    },
    {
      "mesh": 0,
      "name": "Shelve Tall Asset_Material_0"
    },
    {
      "children": [
        6
      ],
      "matrix": [
        100.0,
        0.0,
        0.0,
        0.0,
        0.0,
        -1.629206793918314e-05,
        -99.99999999999868,
        0.0,
        0.0,
        99.99999999999868,
        -1.629206793918314e-05,
        0.0,
        0.0,
        0.0,
        -242.4619140625,
        1.0
      ],
      "name": "Shelve Short Asset"
    },
    {
      "mesh": 1,
      "name": "Shelve Short Asset_Material_0"
    },
    {
      "children": [
        8
      ],
      "matrix": [
        106.63240051269531,
        0.0,
        0.0,
        0.0,
        0.0,
        -1.930330627508845e-05,
        -118.48284912109219,
        0.0,
        0.0,
        109.57669067382668,
        -1.7852308890088635e-05,
        0.0,
        0.0,
        0.0,
        -500.7171630859375,
        1.0
      ],
      "name": "Bench Asset"
    },
    {
      "mesh": 2,
      "name": "Bench Asset_Material_0"
    }
  ],
  "samplers": [
    {
      "magFilter": 9729,
      "minFilter": 9987,
      "wrapS": 10497,
      "wrapT": 10497
    }
  ],
  "scene": 0,
  "scenes": [
    {
      "name": "Sketchfab_Scene",
      "nodes": [
        0
      ]
    }
  ],
  "textures": [
    {
      "sampler": 0,
      "source": 0
    },
    {
      "sampler": 0,
      "source": 1
    },
    {
      "sampler": 0,
      "source": 2
    }
  ]
}
